<svg width="56" height="56" viewBox="0 0 56 56" fill="none" xmlns="http://www.w3.org/2000/svg">
<path d="M28 56C43.464 56 56 43.464 56 28C56 12.536 43.464 0 28 0C12.536 0 0 12.536 0 28C0 43.464 12.536 56 28 56Z" fill="#4C49E7"/>
<path d="M18.8695 24.9565C22.5674 24.9565 25.5652 21.9587 25.5652 18.2608C25.5652 14.5629 22.5674 11.5652 18.8695 11.5652C15.1716 11.5652 12.1739 14.5629 12.1739 18.2608C12.1739 21.9587 15.1716 24.9565 18.8695 24.9565Z" fill="#F9F2F2"/>
<path d="M39.5653 33.2348C39.5653 39.5652 34.3305 44.8 28 44.8C21.6696 44.8 16.4348 39.5652 16.4348 33.2348" fill="#F9F2F2"/>
</svg>
